<svg width="20" height="13" viewBox="0 0 20 13" fill="none" xmlns="http://www.w3.org/2000/svg">
<path fill-rule="evenodd" clip-rule="evenodd" d="M19.2 1.72501C19.2 1.10369 18.7224 0.600006 18.1333 0.600006H17.0667C16.4776 0.600006 16 1.10369 16 1.72501V11.475C16 12.0963 16.4776 12.6 17.0667 12.6H18.1333C18.7224 12.6 19.2 12.0963 19.2 11.475V1.72501ZM11.7667 3.00001H12.8333C13.4224 3.00001 13.9 3.51577 13.9 4.15201V11.448C13.9 12.0842 13.4224 12.6 12.8333 12.6H11.7667C11.1776 12.6 10.7 12.0842 10.7 11.448V4.15201C10.7 3.51577 11.1776 3.00001 11.7667 3.00001ZM7.43333 5.60001H6.36667C5.77756 5.60001 5.3 6.12234 5.3 6.76667V11.4333C5.3 12.0777 5.77756 12.6 6.36667 12.6H7.43333C8.02244 12.6 8.5 12.0777 8.5 11.4333V6.76667C8.5 6.12234 8.02244 5.60001 7.43333 5.60001ZM2.13333 8.00001H1.06667C0.477563 8.00001 0 8.51488 0 9.15001V11.45C0 12.0851 0.477563 12.6 1.06667 12.6H2.13333C2.72244 12.6 3.2 12.0851 3.2 11.45V9.15001C3.2 8.51488 2.72244 8.00001 2.13333 8.00001Z" fill="black"/>
</svg>
