<svg width="18" height="13" viewBox="0 0 18 13" fill="none" xmlns="http://www.w3.org/2000/svg">
<path fill-rule="evenodd" clip-rule="evenodd" d="M9.27125 3.12062C11.7584 3.12073 14.1504 4.02573 15.9529 5.64859C16.0886 5.77388 16.3056 5.7723 16.4393 5.64505L17.7367 4.40498C17.8044 4.34044 17.8422 4.25301 17.8416 4.16205C17.841 4.07108 17.8022 3.98408 17.7338 3.92029C13.0027 -0.373414 5.53902 -0.373414 0.808007 3.92029C0.739475 3.98403 0.700591 4.07101 0.699959 4.16197C0.699327 4.25294 0.736999 4.34039 0.80464 4.40498L2.1025 5.64505C2.2361 5.7725 2.45323 5.77408 2.58888 5.64859C4.39162 4.02563 6.7839 3.12062 9.27125 3.12062ZM9.26947 7.26274C10.6268 7.26266 11.9357 7.76492 12.9418 8.67194C13.0779 8.80066 13.2922 8.79787 13.4249 8.66565L14.7122 7.37077C14.78 7.30285 14.8176 7.21071 14.8166 7.11497C14.8156 7.01922 14.7761 6.92786 14.707 6.86133C11.6431 4.02402 6.8984 4.02402 3.83457 6.86133C3.76536 6.92786 3.72588 7.01927 3.72497 7.11504C3.72406 7.21082 3.7618 7.30295 3.82974 7.37077L5.11665 8.66565C5.2493 8.79787 5.46367 8.80066 5.59975 8.67194C6.6052 7.76552 7.91305 7.2633 9.26947 7.26274ZM11.7915 10.0046C11.7935 10.108 11.7564 10.2076 11.6891 10.2801L9.51245 12.6894C9.44864 12.7602 9.36165 12.8 9.27088 12.8C9.18011 12.8 9.09312 12.7602 9.02931 12.6894L6.85228 10.2801C6.78503 10.2076 6.74803 10.1079 6.75003 10.0045C6.75202 9.90107 6.79283 9.80316 6.86282 9.73385C8.25292 8.44429 10.2888 8.44429 11.6789 9.73385C11.7489 9.80322 11.7896 9.90116 11.7915 10.0046Z" fill="black"/>
</svg>
